<?xml version="1.0" encoding="utf-8"?>
<svg id="master-artboard" viewBox="0 0 615 116" xmlns="http://www.w3.org/2000/svg" >
<g transform="matrix(1.04453706741333, 0, 0, 1.04453706741333, 8.793906772409173, -69.78358459472656)">
<metadata id="metadata-1"/><g transform="matrix(1.3333333,0,0,-1.3333333,0,234.14667)" id="g-1">
<g transform="scale(0.1)" id="g-2"><path id="path16" style="fill:#100f0d;fill-opacity:1;fill-rule:nonzero;stroke:none" d="m 4167.16,641.43 h 15.18 c 9.8,0 16.09,2.019 16.09,12.199 0,8.902 -7.96,11.48 -16.09,11.48 h -15.18 z m -12.78,33.672 h 29.97 c 17.97,0 26.84,-7.223 26.84,-22.012 0,-12.59 -7.96,-21.668 -20.16,-21.668 l 22.21,-34.613 h -13.52 l -21.84,34.613 h -10.72 v -34.613 h -12.78 z m 25.72,-96.043 c 30.72,0 53.86,24.793 53.86,56.812 0,32.008 -23.14,56.82 -53.86,56.82 -31.07,0 -54.23,-24.812 -54.23,-56.82 0,-32.019 23.16,-56.812 54.23,-56.812 z m -0.17,123.613 c 36.81,0 66.79,-29.981 66.79,-66.801 0,-36.832 -29.98,-66.82 -66.79,-66.82 -36.84,0 -66.82,29.988 -66.82,66.82 0,36.82 29.98,66.801 66.82,66.801 z M 0,874.23 C 0,588.172 292.578,573.672 351.246,573.672 c 194.164,0 276.207,52.457 279.609,54.726 12.145,6.864 26.93,20.731 26.93,46.692 v 197.43 c 0,18.199 -14.816,33.011 -33.019,33.011 H 380.859 c -18.23,0 -30.203,-14.812 -30.203,-33.011 v -20.45 c 0,-18.222 11.973,-33.07 30.203,-33.07 h 141.094 c 13.625,0 24.688,-11.066 24.688,-24.68 0,0 -0.133,-86.539 -0.133,-92.031 C 518.629,690.898 391.68,653.82 289.672,678.148 141.695,713.539 130.164,835.617 130.164,872.184 c 0,30.683 9.203,184.436 190.926,199.996 147.094,12.59 243.965,-46.81 244.926,-47.38 17.3,-8.98 35.191,-2.59 44.828,15.72 0.047,0.15 18.344,37.19 18.344,37.19 7.617,15.24 5.058,31.05 -13.555,43.67 C 614.395,1122.1 511.277,1178 351.27,1178 9.84375,1178 0,905.309 0,874.23 Z m 2562.49,-38.742 c -7.71,-13.875 -20.4,-13.828 -28.01,0.078 l -166.2,305.224 c -7.07,14.17 -21.55,25.81 -41.75,25.81 h -90.14 c -15.9,0 -28.91,-12.97 -28.91,-28.87 V 607.52 c 0,-15.86 10.44,-26.711 28.91,-26.711 h 56.02 c 15.91,0 27.38,10.019 27.38,25.339 0,7.34 0.22,385.633 0.83,385.633 0.61,0 207.46,-385.531 207.46,-385.531 7.48,-13.98 25.87,-14.039 33.5,-0.109 0,0 208.55,384.535 209.16,384.535 0.65,0 0.42,-373.496 0.42,-384.528 0,-15.32 12.25,-25.339 28.16,-25.339 h 64.54 c 15.91,0 28.86,7.91 28.86,28.871 v 528.05 c 0,15.9 -12.95,28.87 -28.86,28.87 h -86.43 c -22.05,0 -35.32,-11.25 -43.19,-25.06 z M 3948.81,1166.6 c -15.89,0 -28.72,-10.47 -28.72,-25.76 0,-7.34 0.17,-339.582 0.17,-339.582 0,-15.914 -9,-19.539 -20.02,-8.098 l -340.03,352.69 c -11.05,11.44 -27.2,20.75 -48.97,20.75 h -63.94 c -20.11,0 -28.91,-10.74 -28.91,-21.6 0,-10.83 0,-532.148 0,-543.031 0,-10.828 10.32,-21.16 26.23,-21.16 h 64.04 c 15.86,0 26.98,8.632 26.98,23.261 0,7.34 0.32,357.735 0.32,357.735 0,15.879 8.98,19.504 19.99,8.039 l 354.53,-368.582 c 11.26,-11.274 24.95,-20.453 49.28,-20.453 h 48.11 c 15.91,0 28.89,12.98 28.89,28.871 v 528.05 c 0,15.9 -12.98,28.87 -28.89,28.87 z M 1860.52,911.75 c -17.82,-4.102 -37.89,-4.934 -37.89,-4.934 -15.86,-0.691 -41.82,-1.25 -57.71,-1.25 h -134.83 c -15.89,0 -28.88,13 -28.88,28.887 v 107.567 c 0,15.89 12.99,28.88 28.88,28.88 h 134.83 c 15.89,0 41.85,-0.57 57.71,-1.24 0,0 20.07,-0.79 37.89,-4.9 17.83,-4.12 31.97,-9.86 42.3,-17.28 10.39,-7.45 17.81,-16.19 22.29,-26.25 4.42,-10.06 6.67,-21.01 6.67,-32.957 0,-11.89 -2.25,-22.906 -6.67,-32.957 -4.48,-10.046 -11.9,-18.796 -22.29,-26.25 -10.33,-7.449 -24.47,-13.253 -42.3,-17.316 z m 54.76,-107.816 c -9.13,13 -4.12,27.363 11.09,31.89 0,0 60.52,18.125 89.49,44.09 28.98,26.043 43.54,63.656 43.54,112.668 0,32.058 -5.6,58.998 -16.76,80.918 -11.15,21.87 -27.15,39.75 -47.97,53.46 -20.81,13.76 -45.72,23.86 -74.74,30.19 -29.05,6.29 -68.25,8.13 -68.25,8.13 -15.88,0.73 -41.85,1.32 -57.7,1.32 h -290.85 c -15.86,0 -28.86,-12.97 -28.86,-28.87 V 606.84 c 0,-15.899 13,-26.031 28.86,-26.031 h 68.83 c 15.88,0 28.88,10.132 28.88,26.031 0,0 0.06,211.16 0.18,211.16 0.11,0 0.19,0.121 0.19,0.262 0,0.179 130.48,0.328 130.48,0.328 15.85,0 36.35,-10.621 45.53,-23.617 l 135.45,-190.711 c 12.58,-16.891 24.55,-23.453 40.44,-23.453 h 89.96 c 15.88,0 18.37,14.972 12.88,22.761 -5.46,7.739 -140.67,200.364 -140.67,200.364 z m 1173.65,332.706 c 0,-5.18 0,-520.769 0,-531.191 0,-14.621 12.99,-24.64 28.89,-24.64 h 70.04 c 15.88,0 28.88,10.132 28.88,26.031 v 530.89 c 0,15.9 -10.26,28.87 -26.14,28.87 h -72.78 c -15.9,0 -28.89,-9.78 -28.89,-29.96 z M 946.621,746.879 c -15.879,0 -23.359,11.832 -16.668,26.203 l 100.987,216.363 c 6.72,14.405 17.59,14.315 24.14,-0.093 L 1153.41,773 c 6.57,-14.434 -1.05,-26.262 -16.92,-26.262 z m 161.919,393.911 c -7.06,14.21 -25.86,25.81 -41.75,25.81 h -32.34 c -15.86,0 -34.45,-11.74 -41.309,-26.05 L 736.84,605.109 c -7.125,-14.168 0.617,-24.3 16.515,-24.3 h 59.235 c 23.379,0 34.086,10.621 40.426,23.652 6.351,13.039 20.468,41.359 23.168,47.141 3.648,7.808 14.91,12.597 30.8,12.589 l 275.756,-0.16 c 15.89,-0.031 26.1,-3.051 30.81,-12.429 3.06,-6.122 17.15,-31.582 24.09,-45.5 6.98,-13.891 18.72,-25.293 41.49,-25.293 h 85.94 c 15.88,0 22.85,12.062 17.12,23.261 -5.72,11.239 -273.65,536.72 -273.65,536.72"/>
</g></g></g></svg>