<?xml version="1.0" encoding="utf-8"?>
<svg viewBox="0 0 512 512" xmlns="http://www.w3.org/2000/svg">
  <path d="M 494.798 255.884 C 494.798 124.112 387.888 17.202 256.116 17.202 C 124.344 17.202 17.434 124.112 17.434 255.884 C 17.434 387.656 124.344 494.566 256.116 494.566 C 387.888 494.566 494.798 387.656 494.798 255.884 Z" fill="none" stroke-miterlimit="10" stroke-width="32" style="stroke: rgb(0, 0, 0);"/>
  <path d="M 250.784 124.018 L 259.276 304.418 L 267.752 124.018 C 267.973 119.149 264.06 115.095 259.187 115.142 C 254.379 115.188 250.566 119.214 250.784 124.018 Z" fill="none" stroke-linecap="round" stroke-linejoin="round" style="paint-order: fill; stroke: rgb(0, 0, 0);" stroke-width="32"/>
  <path d="M 259.276 419.453 C 236.5 419.453 222.265 394.798 233.655 375.073 C 245.041 355.35 273.51 355.35 284.897 375.073 C 287.494 379.571 288.861 384.672 288.861 389.866 C 288.861 406.207 275.616 419.453 259.276 419.453 Z" style=""/>
</svg>