<?xml version="1.0" encoding="UTF-8"?>
<svg 
viewBox="0 0 357 85" version="1.1" xmlns="http://www.w3.org/2000/svg" xmlns:xlink="http://www.w3.org/1999/xlink">
    <!-- Generator: Sketch 46.1 (44463) - http://www.bohemiancoding.com/sketch -->
    <title>horizontal-logo</title>
    <desc>Created with Sketch.</desc>
    <defs>
        <path d="M305.49907,0.863908576 L305.49907,50.6460308 L356.290192,50.6460308 L356.290192,40.6882133 L319.669015,40.6882133 L319.669015,30.0315609 L354.606059,30.0315609 L354.606059,20.7749001 L319.669015,20.7749001 L319.669015,10.8170826 L355.800051,10.8170826 L355.800051,0.863908576 L305.49907,0.863908576 Z M236.739993,0.863908576 L268.380783,0.863908576 C286.69021,0.863908576 298.407129,9.34511801 298.407129,24.9121887 C298.407129,40.4096081 285.988682,50.6460308 268.099707,50.6460308 L236.739993,50.6460308 L236.739993,0.863908576 Z M250.912261,10.468826 L250.912261,41.0387917 L266.276198,41.0387917 C276.938501,41.0387917 283.393956,35.1509332 283.393956,25.1931157 C283.393956,15.4488956 276.378672,10.468826 266.20651,10.468826 L250.912261,10.468826 Z M210.495397,50.6460308 L224.665342,50.6460308 L224.665342,0.861586865 L210.495397,0.861586865 L210.495397,50.6460308 Z M143.864134,0.863908576 L177.816252,0.863908576 C193.812029,0.863908576 198.443975,9.06651271 198.443975,16.6399332 C198.443975,22.1772134 195.637861,28.6965772 187.286885,31.4315525 L200.267484,50.6460308 L184.27403,50.6460308 L172.415412,33.0451415 L158.036402,33.0451415 L158.036402,50.6460308 L143.864134,50.6460308 L143.864134,0.863908576 Z M158.036402,10.3272017 L158.036402,23.9997564 L174.589685,23.9997564 C181.395905,23.9997564 183.430802,20.5659461 183.430802,17.0578412 C183.430802,13.6240309 181.395905,10.3272017 174.589685,10.3272017 L158.036402,10.3272017 Z" id="path-1"></path>
        <path d="M294.225574,66.3988384 C293.324273,66.7819207 292.54841,67.3391312 291.897987,68.0751135 C291.24524,68.8110959 290.734193,69.7142413 290.367168,70.7822283 C290.000143,71.8571804 289.816631,73.0784002 289.816631,74.4574964 C289.816631,75.8040887 289.983883,77.0090566 290.320709,78.0724001 C290.657536,79.1357436 291.152322,80.0365674 291.802746,80.7725497 C292.45317,81.5062103 293.249939,82.0680643 294.193053,82.4581117 C295.133845,82.8504809 296.21169,83.0431829 297.421942,83.0431829 C297.970157,83.0431829 298.532309,82.9990704 299.108398,82.9062019 C299.684488,82.8133335 300.241994,82.6717091 300.787885,82.4813289 C301.32913,82.2932703 301.851792,82.0541341 302.346579,81.7708854 C302.846011,81.4876366 303.301308,81.1533103 303.714792,80.7725497 L303.714792,74.2067517 L297.582225,74.2067517 L297.582225,76.0432249 L301.717062,76.0432249 L301.717062,79.9692378 C301.134003,80.3964326 300.478934,80.7098635 299.751853,80.9095307 C299.024772,81.1091978 298.24891,81.2067096 297.421942,81.2067096 C296.502057,81.2067096 295.705288,81.0465116 295.031635,80.7261155 C294.357982,80.4057194 293.79583,79.9460207 293.34518,79.3470193 C292.889883,78.7503397 292.557702,78.0352527 292.343992,77.2017586 C292.130281,76.3659427 292.021103,75.4442235 292.021103,74.436601 C292.021103,73.4243352 292.132604,72.502616 292.355606,71.6668001 C292.576286,70.8333059 292.901498,70.118219 293.331242,69.5215394 C293.760986,68.9248597 294.297586,68.4605175 294.938718,68.1308346 C295.584495,67.8034734 296.334806,67.6386319 297.191971,67.6386319 C297.849364,67.6386319 298.411516,67.7152484 298.878427,67.8684813 C299.345338,68.0217142 299.742561,68.239955 300.063127,68.5232037 C300.383693,68.8064524 300.648508,69.1477439 300.852927,69.5447565 C301.061992,69.9440907 301.226921,70.3805723 301.350037,70.8518796 L303.394226,70.5082664 C303.224651,69.8047881 302.980742,69.1663176 302.657853,68.5905333 C302.337287,68.0193925 301.928449,67.5225464 301.429017,67.1092819 C300.931907,66.6960174 300.330265,66.3802647 299.624091,66.1573805 C298.922563,65.9344962 298.111856,65.8253758 297.191971,65.8253758 C296.118772,65.8253758 295.131522,66.0157561 294.225574,66.3988384 Z" id="path-3"></path>
        <path d="M319.561901,65.8253758 L325.327442,65.8253758 C326.600414,65.8253758 327.648061,65.960035 328.477351,66.2339969 C329.306641,66.5079588 329.957065,66.8771108 330.433268,67.3437747 C330.904825,67.8104385 331.237006,68.3537188 331.420518,68.9712939 C331.606354,69.5911907 331.699271,70.2459131 331.699271,70.9377829 C331.699271,71.659835 331.601708,72.3517048 331.408904,73.0110706 C331.2161,73.6704365 330.87695,74.2485425 330.393778,74.7477103 C329.912929,75.2468781 329.262505,75.6415689 328.442507,75.9294611 C327.620186,76.2196749 326.584154,76.363621 325.327442,76.363621 L321.757081,76.363621 L321.757081,83.0431829 L319.561901,83.0431829 L319.561901,65.8253758 Z M321.757081,67.7059615 L321.757081,74.4830353 L325.304213,74.4830353 C326.142795,74.4830353 326.832708,74.4017754 327.380923,74.2438991 C327.926814,74.0813793 328.354235,73.8492082 328.656218,73.5427424 C328.965169,73.2362766 329.17888,72.8694463 329.29735,72.4468949 C329.418143,72.0197001 329.478539,71.5414277 329.478539,71.009756 C329.478539,70.4641539 329.413497,69.9812381 329.285735,69.5633301 C329.157973,69.1454222 328.930325,68.7971656 328.609759,68.5255254 C328.28687,68.2515636 327.859449,68.047253 327.320526,67.9125938 C326.779281,67.7732911 326.100982,67.7059615 325.27866,67.7059615 L321.757081,67.7059615 Z" id="path-5"></path>
        <path d="M347.453722,66.0993377 C346.719672,66.2850745 346.080863,66.5660015 345.546586,66.9490838 C345.009987,67.3321661 344.584889,67.8081168 344.273614,68.3746142 C343.957694,68.93879 343.799734,69.5981558 343.799734,70.3480684 C343.799734,71.1142329 343.911235,71.764312 344.131915,72.3006271 C344.35724,72.8346206 344.684775,73.2850325 345.121488,73.642576 C345.558201,74.0024411 346.090155,74.2972984 346.719672,74.5271478 C347.346866,74.7546754 348.066978,74.9380906 348.875362,75.0773932 L350.945103,75.4442235 C351.55836,75.5510222 352.060115,75.69729 352.448046,75.8807051 C352.840624,76.0641203 353.144929,76.2777177 353.367931,76.523819 C353.590934,76.7699204 353.741925,77.0415605 353.818582,77.3387395 C353.892916,77.6359185 353.930083,77.9470277 353.930083,78.2697455 C353.930083,78.6667581 353.869687,79.0451969 353.746571,79.4073838 C353.623455,79.7649273 353.419036,80.0783582 353.128668,80.3476767 C352.838301,80.6146734 352.448046,80.8282708 351.967198,80.9907905 C351.486349,81.1509886 350.884707,81.2299267 350.166918,81.2299267 C348.726694,81.2299267 347.639557,80.9768603 346.914799,80.4614405 C346.185395,79.9506641 345.730099,79.1194917 345.546586,77.9702448 L343.432709,77.9702448 C343.509366,78.8594601 343.7254,79.6233029 344.076164,80.2664168 C344.426928,80.9095307 344.896163,81.436559 345.479221,81.8521452 C346.059957,82.2654098 346.742901,82.5649104 347.532702,82.7576124 C348.322502,82.9503144 349.198251,83.0431829 350.166918,83.0431829 C351.172751,83.0431829 352.053146,82.9224539 352.80578,82.6786743 C353.55609,82.4325729 354.180961,82.0959249 354.680394,81.6664084 C355.17518,81.2392136 355.551497,80.7377241 355.804697,80.1619398 C356.055575,79.5907989 356.183337,78.9732239 356.183337,78.3161797 C356.183337,76.8767191 355.783791,75.785515 354.987022,75.0425676 C354.192576,74.3019418 352.945156,73.7679483 351.244763,73.4475523 L348.947373,73.0342877 C348.380575,72.927489 347.906695,72.799795 347.521087,72.6558489 C347.137802,72.5119028 346.831173,72.326166 346.594233,72.1032817 C346.35497,71.8827192 346.185395,71.6226876 346.087832,71.3231869 C345.985622,71.0260079 345.936841,70.6754296 345.936841,70.2784171 C345.936841,69.9115868 346.001883,69.5656519 346.131968,69.2336472 C346.262053,68.9039643 346.480409,68.6230373 346.787037,68.3839011 C347.093666,68.1470866 347.50018,67.959028 348.006582,67.8220471 C348.508337,67.6850661 349.137854,67.6154148 349.888165,67.6154148 C350.545557,67.6154148 351.107709,67.6757793 351.565329,67.79883 C352.025271,67.9195589 352.410879,68.1029741 352.7268,68.3374669 C353.038074,68.5766031 353.293597,68.8761038 353.484079,69.2336472 C353.67456,69.5935124 353.83252,70.0044552 353.955636,70.4641539 L355.930136,70.0717848 C355.80702,69.5377913 355.625831,69.010763 355.393537,68.4999866 C355.154274,67.9868885 354.805832,67.5318332 354.34589,67.132499 C353.885947,66.7354864 353.293597,66.4174121 352.566517,66.1805976 C351.837113,65.9437831 350.928843,65.8253758 349.841706,65.8253758 C348.98454,65.8253758 348.187771,65.9159225 347.453722,66.0993377 Z" id="path-7"></path>
    </defs>
    <g id="Stylesheet-R2" stroke="none" stroke-width="1" fill="none" fill-rule="evenodd">
        <g id="15_Logo-Vertical" transform="translate(-781.000000, -318.000000)">
            <g id="horizontal-logo" transform="translate(781.000000, 318.000000)">
                <g id="cyclist" fill="#FA6400">
                    <path d="M71.3922215,49.5444512 C71.3965611,49.5309036 71.4008904,49.517391 71.4052092,49.5039137 C70.455813,50.5042336 69.3835853,51.7140672 68.1336999,53.2471354 C64.7730685,57.369175 58.3791308,64.9076347 57.2582049,66.2558 C45.2572021,80.6897034 38.3044288,83.4977988 30.6687599,84.0440223 C29.319364,84.1771958 27.8309132,84.2462872 26.1811135,84.2462872 C12.9261782,84.2462872 0,73.1015796 0,59.0465896 C7.58886038e-16,46.0139338 9.2716295,35.2482342 21.7445801,33.8341184 C22.7230088,33.7231895 24.6348778,33.4980373 26.9871831,33.8341184 C29.027853,34.1256752 32.2327963,35.0750505 32.7388045,36.593961 C29.5052203,35.9252031 27.7937627,36.0482899 26.0461559,36.2539025 C21.4757152,36.7916323 18.2637483,38.145758 15.9483597,39.8384709 C10.7816537,43.6156984 7.28205046,49.3582407 7.28205046,56.2779079 C7.28205046,67.3599491 16.4744664,76.3147727 27.45819,76.3147727 C33.0070411,76.3147727 38.1750794,74.1386138 41.930917,70.5562082 C42.6961678,69.9229324 43.3540395,69.3246627 43.8627782,68.7778881 C48.784266,63.4884442 58.2439294,52.2235076 58.2439294,49.7533859 C58.2439294,47.0081162 52.1008479,40.7270916 45.7494311,36.9199338 C36.7045346,31.4982539 36.3436708,27.3440184 36.3436708,24.1666063 C36.3436708,13.9710503 52.0503516,8.65766285 67.1034161,10.1198884 C70.7906362,23.6642609 81.4861513,24.3903578 83.3381003,24.5229791 C88.8989805,24.9212035 91.6273495,24.4760546 94.9430492,23.6796057 C98.2587489,22.8831569 99.309775,22.1336325 99.309775,22.1336325 C99.309775,22.1336325 99.309775,23.2763084 96.7578873,24.973201 C94.2059995,26.6700936 87.1179323,29.2585524 82.3063989,29.2585524 C72.0895327,29.2585524 66.5342055,24.9037196 61.4157759,19.1742207 C49.8278441,20.1052472 48.7340566,23.5211829 49.4614923,24.6092143 C51.1463275,27.1292353 69.0648025,39.4130651 70.6443838,39.1385242 C72.6597038,38.7882492 80.613183,32.099992 92.9200525,33.1722815 C106.741635,33.5461497 117.987023,44.7031114 117.987023,58.5536958 C117.987023,72.6428505 106.936108,84.0446386 92.2035917,84.0446386 C80.0210472,84.0446386 71.9153283,75.3786082 73.3134491,73.2900425 C73.3302156,73.2649961 73.3465079,73.2418957 73.362341,73.2206194 C77.0857927,76.7019201 83.1740985,80.3835879 89.315794,80.3835879 C101.058634,80.3835879 110.578087,71.3027918 110.578087,60.1010622 C110.578087,48.8993326 102.904495,41.4898559 91.2206489,40.4350988 C86.1711063,39.9792522 83.2532905,40.9569806 80.1365328,42.5213461 C77.4627655,43.8633656 74.0267514,46.8297359 71.3922215,49.5444512 Z" id="Combined-Shape"></path>
                    <path d="M81.9196159,18.2384915 C85.6380605,18.2384915 89.9196841,15.1315355 89.9196841,10.2286484 C89.9196841,5.32576131 85.0883782,2.17471031 80.6121782,1.30259712 C71.6870141,-0.43632282 62.5322184,1.91548914 59.9209383,6.1806377 C59.9209383,6.1806377 60.8996673,5.83849641 62.2377329,5.53722545 C65.7289282,4.75116853 69.174876,5.30892677 71.9667826,7.06678557 C73.2079692,7.84826979 73.3630915,9.50094249 73.3563687,9.6934597 C73.1523374,15.5361509 78.2011712,18.2384915 81.9196159,18.2384915 Z" id="Oval-3" transform="translate(74.920311, 9.481891) rotate(-2.000000) translate(-74.920311, -9.481891) "></path>
                </g>
                <mask id="mask-2" fill="white">
                    <use xlink:href="#path-1"></use>
                </mask>
                <use id="Clip-3" fill="#000000" xlink:href="#path-1"></use>
                <path d="M234.235397,65.684448 L234.235397,72.5985026 L226.581304,72.5985026 L226.581304,65.684448 L224.613772,65.684448 L224.613772,82.5214944 L226.581304,82.5214944 L226.581304,74.5417745 L234.235397,74.5417745 L234.235397,82.5214944 L236.202929,82.5214944 L236.202929,65.684448 L234.235397,65.684448 Z M197.681585,65.684448 L197.681585,67.6253982 L202.157894,67.6253982 L202.157894,82.5214944 L204.125426,82.5214944 L204.125426,67.6253982 L208.699298,67.6253982 L208.699298,65.684448 L197.681585,65.684448 Z M179.799579,82.5214944 L181.767111,82.5214944 L181.767111,65.684448 L179.799579,65.684448 L179.799579,82.5214944 Z M162.105732,65.684448 L158.790894,79.0180329 L154.904612,66.3716744 L153.43419,66.3716744 L149.547908,79.0180329 L146.230747,65.684448 L144.216757,65.684448 L148.528137,82.5214944 L150.400428,82.5214944 L154.170562,70.3510866 L157.936051,82.5214944 L159.808342,82.5214944 L164.122045,65.684448 L162.105732,65.684448 Z" id="Fill-1" fill="#000000"></path>
                <mask id="mask-4" fill="white">
                    <use xlink:href="#path-3"></use>
                </mask>
                <use id="Clip-6" fill="#000000" xlink:href="#path-3"></use>
                <mask id="mask-6" fill="white">
                    <use xlink:href="#path-5"></use>
                </mask>
                <use id="Clip-9" fill="#000000" xlink:href="#path-5"></use>
                <mask id="mask-8" fill="white">
                    <use xlink:href="#path-7"></use>
                </mask>
                <use id="Clip-12" fill="#000000" xlink:href="#path-7"></use>
            </g>
        </g>
    </g>
</svg>