<?xml version="1.0" encoding="utf-8"?>
<svg width="36" height="36" viewBox="0 0 512 512" xmlns="http://www.w3.org/2000/svg">
  <path d="M 366.156 397.322 L 146.322 397.322 C 68.399 397.322 5 333.923 5 256 C 5 178.077 68.399 114.678 146.322 114.678 L 366.156 114.678 C 444.079 114.678 507.478 178.077 507.478 256 C 507.478 333.923 444.079 397.322 366.156 397.322 Z M 366.156 146.083 C 281.542 146.083 228.658 237.68 270.965 310.959 C 313.272 384.237 419.04 384.237 461.347 310.959 C 470.994 294.249 476.073 275.294 476.073 256 C 476.008 195.321 426.835 146.148 366.156 146.083 Z" style="fill: rgb(255, 255, 255);" transform="matrix(-1, 0, 0, -1, 512.477997, 511.999985)"/>
  <ellipse style="" cx="-146.395" cy="255.742" rx="110.631" ry="110.631" transform="matrix(-1, 0, 0, 1, 0, 0)"/>
</svg>