<?xml version="1.0" encoding="utf-8"?>
<svg width="36" height="36" viewBox="0 0 512 512" xmlns="http://www.w3.org/2000/svg">
  <path d="M 366.156 114.678 L 146.322 114.678 C 68.399 114.678 5 178.077 5 256 C 5 333.923 68.399 397.322 146.322 397.322 L 366.156 397.322 C 444.079 397.322 507.478 333.923 507.478 256 C 507.478 178.077 444.079 114.678 366.156 114.678 Z M 366.156 365.917 C 281.542 365.917 228.658 274.32 270.965 201.041 C 313.272 127.763 419.04 127.763 461.347 201.041 C 470.994 217.751 476.073 236.706 476.073 256 C 476.008 316.679 426.835 365.852 366.156 365.917 Z" style="fill: rgb(0, 128, 255);"/>
  <ellipse style="fill: rgb(255, 255, 255);" cx="366.083" cy="255.742" rx="110.631" ry="110.631"/>
</svg>